{"accessors" : [{"bufferView" : 0, "byteOffset" : 0, "componentType" : 5125, "count" : 540000, "type" : "SCALAR", "max" : [539999], "min" : [0]}, {"bufferView" : 1, "byteOffset" : 0, "componentType" : 5126, "count" : 540000, "type" : "VEC3", "max" : [17279966, 17279970, 17279974], "min" : [-2.779473066329956, 1.220526933670044, 5.220526695251465]}, {"bufferView" : 1, "byteOffset" : 12, "componentType" : 5126, "count" : 540000, "type" : "VEC3", "max" : [17279978, 17279982, 17279986], "min" : [9.220526695251465, 13.220526695251465, 17.22052764892578]}, {"bufferView" : 1, "byteOffset" : 24, "componentType" : 5126, "count" : 540000, "type" : "VEC2", "max" : [17279990, 17279994], "min" : [21.22052764892578, 25.22052764892578]}], "asset" : {"generator" : "Aspose.3D 20.8", "version" : "2.0"}, "buffers" : [{"uri" : "buffer.bin", "byteLength" : 23387244}], "bufferViews" : [{"buffer" : 0, "byteOffset" : 0, "byteLength" : 2160000, "target" : 34963}, {"buffer" : 0, "byteOffset" : 2160004, "byteLength" : 17280000, "byteStride" : 32, "target" : 34962}, {"buffer" : 0, "byteOffset" : 19440008, "byteLength" : 3947234}], "images" : [{"mimeType" : "image/jpeg", "bufferView" : 2}], "materials" : [{"pbrMetallicRoughness" : {"baseColorFactor" : [1, 1, 1, 1], "baseColorTexture" : {"index" : 0, "texCoord" : 0}, "metallicFactor" : 1, "roughnessFactor" : 0.858578622341156}, "emissiveFactor" : [0, 0, 0], "alphaMode" : "OPAQUE", "doubleSided" : true}], "meshes" : [{"primitives" : [{"attributes" : {"POSITION" : 1, "NORMAL" : 2, "TEXCOORD_0" : 3}, "indices" : 0, "material" : 0, "mode" : 4}]}], "nodes" : [{"matrix" : [0.1671377271413803, 0, 0, 0, 0, 0.1671377271413803, 0, 0, 0, 0, 0.1671377271413803, 0, 0.4240749776363373, 0.20578908920288086, -1.555176854133606, 1], "mesh" : 0, "name" : "default"}], "samplers" : [{"magFilter" : 9729, "minFilter" : 9729, "wrapS" : 10497, "wrapT" : 10497}], "scene" : 0, "scenes" : [{"nodes" : [0]}], "textures" : [{"sampler" : 0, "source" : 0}]}